inDegrees=no
num_controls=7
num_derivatives=13
num_iterations=111
num_multipliers=7
num_parameters=0
num_slacks=7
num_states=26
objective=0.497122
objective_accelerations=0.032367
objective_balance=0.003287
objective_effort=0.035064
objective_height=0.420910
objective_ligament=0.005494
solver_duration=1273.140757
status=Solve_Succeeded
success=true
DataType=double
version=3
OpenSimVersion=4.5
endheader
time	/jointset/ground_pelvis/pelvis_tilt/value	/jointset/ground_pelvis/pelvis_tx/value	/jointset/ground_pelvis/pelvis_ty/value	/jointset/hip_r/hip_flexion_r/value	/jointset/hip_r/hip_adduction_r/value	/jointset/hip_r/hip_rotation_r/value	/jointset/back/lumbar_extension/value	/jointset/patellofemoral_r/patellar_flexion_r/value	/jointset/knee_r/knee_flexion_r/value	/jointset/knee_r/knee_adduction_r/value	/jointset/knee_r/knee_rotation_r/value	/jointset/ankle_r/ankle_angle_r/value	/jointset/subtalar_r/subtalar_angle_r/value	/jointset/ground_pelvis/pelvis_tilt/speed	/jointset/ground_pelvis/pelvis_tx/speed	/jointset/ground_pelvis/pelvis_ty/speed	/jointset/hip_r/hip_flexion_r/speed	/jointset/hip_r/hip_adduction_r/speed	/jointset/hip_r/hip_rotation_r/speed	/jointset/back/lumbar_extension/speed	/jointset/patellofemoral_r/patellar_flexion_r/speed	/jointset/knee_r/knee_flexion_r/speed	/jointset/knee_r/knee_adduction_r/speed	/jointset/knee_r/knee_rotation_r/speed	/jointset/ankle_r/ankle_angle_r/speed	/jointset/subtalar_r/subtalar_angle_r/speed	/forceset/tau_hip_flexion_r	/forceset/tau_hip_adduction_r	/forceset/tau_hip_rotation_r	/forceset/tau_knee_flexion_r	/forceset/tau_ankle_angle_r	/forceset/tau_subtalar_angle_r	/forceset/tau_lumbar_extension	lambda_cid13_p0	lambda_cid14_p0	lambda_cid14_p1	lambda_cid14_p2	lambda_cid14_p3	lambda_cid14_p4	lambda_cid14_p5	/jointset/ground_pelvis/pelvis_tilt/accel	/jointset/ground_pelvis/pelvis_tx/accel	/jointset/ground_pelvis/pelvis_ty/accel	/jointset/hip_r/hip_flexion_r/accel	/jointset/hip_r/hip_adduction_r/accel	/jointset/hip_r/hip_rotation_r/accel	/jointset/back/lumbar_extension/accel	/jointset/patellofemoral_r/patellar_flexion_r/accel	/jointset/knee_r/knee_flexion_r/accel	/jointset/knee_r/knee_adduction_r/accel	/jointset/knee_r/knee_rotation_r/accel	/jointset/ankle_r/ankle_angle_r/accel	/jointset/subtalar_r/subtalar_angle_r/accel	gamma_cid13_p0	gamma_cid14_p0	gamma_cid14_p1	gamma_cid14_p2	gamma_cid14_p3	gamma_cid14_p4	gamma_cid14_p5
0	-0.006515409986900049	0.09626031016774907	0.9427240686355491	0.1762555222360518	-0.2321527456010141	-0.26164059875266	-0.038598046466844	0.07317863873451093	0.07317863873451017	0.1745328575310268	0.1745328682072917	0.03247278518263602	-0.003452036911492727	0	0	0	0	0	0	0	0	0	0	0	0	0	0.2119250913130382	-0.1480108826579509	-0.04226969439948375	-0.393017794103155	0.3903010951192197	-0.1511588657717944	-0.1100984672400531	-39.07622315212609	75.42443928548441	-42.59390839074999	-3.998312784480603	-32.84959880579622	-679.5401842247049	49.68641115236907	-1.220374457515829	-0.8854327918554976	-0.4846260155466604	7.356859921997105	0.2235037558455442	2.221105680601537	-4.818775766743293	8.424132703102321	8.424132703102334	-2.721439831343834	0.1650773635658848	3.078848317166702	0.9297461167200596	8.480340006908838e-08	5.482050761222714e-08	-5.528879969061953e-07	1.814627289024163e-07	1.973780635375293e-08	4.137230090625839e-08	-2.786331794278117e-07
0.01	-0.006571925490618999	0.09621887186525742	0.9427008585583079	0.1766094895309828	-0.2321405439599016	-0.2615213116425814	-0.03884014136571399	0.07358815317095312	0.07358815317095467	0.1743969767961172	0.1745297108214063	0.03262597917346442	-0.003404733459052049	-0.01134147670365131	-0.008029764613118622	-0.004630659715903734	0.07031292668705001	0.00237263344582956	0.02375969342408893	-0.04804328024050435	0.08157283215770801	0.08157283215771151	-0.02693443418309251	-0.000617228868789579	0.03077349338866399	0.00942197522902939	0.2159732882161369	-0.1657377684243315	-0.04390934186447214	-0.4058868403173584	0.4097994504906665	-0.1413311354019879	-0.111981255703	-39.08986646097866	82.11501985986892	-37.25017262909091	-4.740687957877051	-39.78224395844689	-680.4119680535207	61.18575258422759	-1.096786460758273	-0.7230599656168114	-0.4505743153057397	6.796433812176608	0.2339326488611668	2.438785664230543	-4.740749222729757	7.974333241805606	7.974333241806013	-2.643256386543245	-0.1729336214837509	3.09681964910606	0.9425495143800123	1.137660534154061e-07	5.540351691178338e-08	-7.545838180727147e-07	1.834287215062431e-07	5.075858006048248e-08	-1.047269730114356e-07	-3.500972833674353e-07
0.02	-0.006743006198167065	0.09610487358271932	0.942631684210769	0.1776521710468085	-0.2321066580823488	-0.2611673507000775	-0.03955139808099394	0.07480349088291399	0.07480349088291481	0.1739989894844191	0.1745208190249158	0.03309095205805765	-0.00326438499664396	-0.02291304076604557	-0.0145119960092927	-0.009192854059549619	0.1377428441788077	0.004336847288039725	0.04693476648489583	-0.0938323632820425	0.1611646551034389	0.1611646551034411	-0.05242131535623599	-0.00114688211287267	0.06235577875292073	0.01860900199348404	0.2200214851192316	-0.1834646541907136	-0.04554898932947722	-0.4187558865315632	0.4292978058621111	-0.1315034050321832	-0.1138640441659478	-39.13013389820311	88.88077873416759	-31.91628351764054	-5.455208719395783	-46.89055481459075	-680.1414533550746	72.45736426879084	-1.266391929264448	-0.5759261484665589	-0.4709329410950923	6.780258082938643	0.1418198351216579	2.104181607945084	-4.367936326950072	8.027930860706896	8.027930860705961	-2.431929229354008	0.1825924885072335	3.240606712285284	0.8827564238051112	1.427287067617238e-07	5.598652621133962e-08	-9.562796392392341e-07	1.853947141100698e-07	8.177935376721205e-08	-2.508262469291297e-07	-4.215613873070588e-07
0.03	-0.007030019697232206	0.09593083886889206	0.9425169993436169	0.1793572546781878	-0.2320551865169062	-0.2605874812825267	-0.04070962970441053	0.07680522513483461	0.07680522513483472	0.1733536785249628	0.1745096124278909	0.03387206270941694	-0.003034166456936298	-0.03439669584301459	-0.02033089831741805	-0.01374789532124196	0.2029918071331221	0.005916496999271641	0.06891920147153402	-0.1375129050875971	0.2388161296812435	0.2388161296812484	-0.07643077463780056	-0.001110530701113548	0.09362569393730073	0.02733908317275841	0.2113682239242013	-0.1914935774966688	-0.04287995811390043	-0.4054002930910121	0.405845504931864	-0.1156556923010077	-0.1073796800451012	-39.19604007737968	81.96060463881777	-26.34236513667209	-6.232965726239136	-42.14588495669008	-679.6199224856734	82.24485084333543	-1.075392996613915	-0.5902485248913201	-0.4484068668158154	6.354913593709059	0.1597860883410773	2.22763986791532	-4.322954660353921	7.578817253634609	7.578817253635531	-2.354068863229008	-0.0881900627044561	3.034113264212634	0.8536604279718326	1.659709958973381e-07	6.366642326534436e-08	-1.104665600480403e-06	2.196340042746207e-07	9.706424478484612e-08	-3.347845705651918e-07	-4.979544909509262e-07
